<svg xmlns="http://www.w3.org/2000/svg" width="256" height="256"
     viewBox="0 0 100 100">
    <rect width="100" height="100" rx="20" fill="#1e1e1e"></rect>
    <path fill="#fff"
          d="M26.83 72.29L26.83 72.29Q20.86 72.29 16.46 69.58Q12.07 66.86 9.68 61.88Q7.30 56.90 7.30 50.12L7.30 50.12Q7.30 43.22 9.80 38.20Q12.31 33.17 16.80 30.44Q21.31 27.71 27.31 27.71L27.31 27.71Q31.18 27.71 34.35 28.94Q37.53 30.17 39.89 32.30Q42.24 34.43 43.58 37.12Q44.91 39.80 45.03 42.68L45.03 42.68L35.80 42.68Q35.41 40.61 34.25 38.90Q33.09 37.19 31.30 36.16Q29.50 35.12 27.10 35.12L27.10 35.12Q24.22 35.12 21.88 36.60Q19.54 38.09 18.19 41.33Q16.84 44.57 16.84 49.88L16.84 49.88Q16.84 54.17 17.72 57.02Q18.61 59.87 20.11 61.53Q21.61 63.20 23.53 63.89Q25.45 64.58 27.46 64.58L27.46 64.58Q29.38 64.58 30.89 63.93Q32.41 63.29 33.48 62.27Q34.56 61.25 35.20 60.03Q35.83 58.82 36.01 57.65L36.01 57.65L36.34 55.01L27.37 55.01L27.37 48.95L45.52 49.04L45.52 71.69L39.54 71.69L39.54 66.02Q38.43 67.49 36.80 68.94Q35.16 70.40 32.75 71.34Q30.34 72.29 26.83 72.29ZM72.84 72.29L72.84 72.29Q66.69 72.29 62.21 69.61Q57.72 66.92 55.28 61.95Q52.84 56.99 52.84 50.09L52.84 50.09Q52.84 43.16 55.31 38.15Q57.78 33.14 62.28 30.42Q66.78 27.71 72.84 27.71L72.84 27.71Q78.88 27.71 83.34 30.41Q87.81 33.11 90.26 38.12Q92.70 43.13 92.70 50.09L92.70 50.09Q92.70 56.96 90.29 61.94Q87.88 66.92 83.41 69.61Q78.94 72.29 72.84 72.29ZM72.84 65.09L72.84 65.09Q76.03 65.09 78.35 63.57Q80.67 62.06 81.94 58.77Q83.19 55.49 83.19 50.21L83.19 50.21Q83.19 44.78 81.92 41.42Q80.64 38.06 78.32 36.48Q76.00 34.91 72.84 34.91L72.84 34.91Q69.69 34.91 67.35 36.48Q65.02 38.06 63.72 41.44Q62.44 44.81 62.44 50.21L62.44 50.21Q62.44 55.52 63.72 58.79Q65.02 62.06 67.35 63.57Q69.69 65.09 72.84 65.09Z"></path>
</svg>